<svg width="16" height="16" viewBox="0 0 16 16" fill="none" xmlns="http://www.w3.org/2000/svg">
<g clip-path="url(#clip0_1:7)">
<path d="M16 7.03V11.1708C16 12.3632 15.0334 13.3298 13.8409 13.3298H2.15906C0.966632 13.3298 0 12.3632 0 11.1708V7.03C0 6.82264 0.168124 6.65451 0.375488 6.65451H15.6245C15.8319 6.65451 16 6.82264 16 7.03ZM12.0052 9.65842H13.0065C13.3694 9.65842 13.6636 9.36422 13.6636 9.00131C13.6636 8.6384 13.3694 8.34421 13.0065 8.34421H12.0052C11.6423 8.34421 11.3481 8.6384 11.3481 9.00131C11.3481 9.36422 11.6423 9.65842 12.0052 9.65842Z" fill="white"/>
<path d="M0 4.96481V4.82922C0 3.6368 0.966632 2.67017 2.15906 2.67017H13.8409C15.0334 2.67017 16 3.6368 16 4.82922V4.96481C16 5.17217 15.8319 5.3403 15.6245 5.3403H0.375488C0.168124 5.3403 0 5.17217 0 4.96481Z" fill="white"/>
</g>
<defs>
<clipPath id="clip0_1:7">
<rect width="16" height="16" fill="white" transform="matrix(-1 0 0 1 16 0)"/>
</clipPath>
</defs>
</svg>
