<svg width="10" height="10" viewBox="0 0 10 10" fill="none" xmlns="http://www.w3.org/2000/svg">
<g clip-path="url(#clip0_1:219)">
<path d="M9.86004 0.888074L9.16926 0.205506C8.98234 0.0185904 8.67353 0.0185904 8.47848 0.205506L5.03273 3.65118L1.52204 0.140492C1.33505 -0.0465052 1.02623 -0.0465052 0.831268 0.140492L0.140492 0.831268C-0.0465051 1.01818 -0.0465051 1.327 0.140492 1.52204L3.64313 5.02469L0.205506 8.47857C0.0185904 8.66548 0.0185904 8.9743 0.205506 9.16934L0.896282 9.86012C1.0832 10.047 1.39202 10.047 1.58706 9.86012L5.03273 6.41437L8.47848 9.86012C8.6654 10.047 8.97422 10.047 9.16926 9.86012L9.86004 9.16934C10.047 8.98243 10.047 8.67361 9.86004 8.47857L6.40616 5.03281L9.85191 1.58714C10.047 1.39193 10.047 1.08312 9.86004 0.888074Z" fill="#898989"/>
</g>
<defs>
<clipPath id="clip0_1:219">
<rect width="10" height="10" fill="white"/>
</clipPath>
</defs>
</svg>
