<svg width="14" height="16" viewBox="0 0 14 16" fill="none" xmlns="http://www.w3.org/2000/svg">
<path d="M7.62162 15.7442L13.3999 9.96608C13.5649 9.80114 13.6554 9.58131 13.6554 9.3469C13.6554 9.11224 13.5647 8.89253 13.3999 8.72759L12.8752 8.20298C12.7105 8.03817 12.4905 7.94737 12.256 7.94737C12.0216 7.94737 11.7942 8.03817 11.6295 8.20298L8.25121 11.5739L8.25121 0.86438C8.25121 0.381523 7.8732 -2.1601e-06 7.39021 -2.18121e-06L6.64836 -2.21364e-06C6.16538 -2.23475e-06 5.74925 0.381523 5.74925 0.86438L5.74925 11.6121L2.35207 8.20311C2.18713 8.0383 1.97315 7.9475 1.73862 7.9475C1.50434 7.9475 1.28724 8.0383 1.12243 8.20311L0.599373 8.72772C0.434432 8.89266 0.344547 9.11237 0.344547 9.34703C0.344547 9.58144 0.435602 9.80127 0.600544 9.96621L6.37871 15.7444C6.54417 15.9097 6.76505 16.0006 6.99984 16C7.23542 16.0005 7.45642 15.9097 7.62162 15.7442Z" fill="#00C9A5"/>
</svg>
