<svg width="22" height="22" viewBox="0 0 22 22" fill="none" xmlns="http://www.w3.org/2000/svg">
<path d="M19.2509 3.43629H5.50574C4.74662 3.43629 4.13123 4.05169 4.13123 4.81081C4.13123 5.56993 4.74662 6.18533 5.50574 6.18533H19.2509C20.01 6.18533 20.6254 5.56993 20.6254 4.81081C20.6254 4.05169 20.01 3.43629 19.2509 3.43629Z" fill="black"/>
<path d="M2.75673 4.81081C2.75519 4.44686 2.60936 4.09838 2.35125 3.84177C1.81515 3.30885 0.949286 3.30885 0.413182 3.84177C0.15503 4.09838 0.00920282 4.44686 0.00769944 4.81081C-0.00256648 4.89985 -0.00256648 4.98979 0.00769944 5.07884C0.0232487 5.1684 0.0485913 5.25598 0.0832979 5.34C0.120195 5.42139 0.163879 5.49957 0.213877 5.57366C0.263231 5.65072 0.320832 5.72215 0.385692 5.78671C0.448232 5.849 0.517344 5.90432 0.591869 5.95166C0.664246 6.00436 0.742722 6.04822 0.825537 6.08223C0.916642 6.12948 1.01376 6.16419 1.11419 6.18532C1.20323 6.19529 1.29317 6.19529 1.38222 6.18532C1.74517 6.18562 2.09353 6.04233 2.35125 5.78671C2.41611 5.72215 2.47371 5.65072 2.52307 5.57366C2.57306 5.49957 2.61675 5.42139 2.65364 5.34C2.6975 5.25701 2.73208 5.16943 2.75673 5.07884C2.767 4.98979 2.767 4.89985 2.75673 4.81081Z" fill="black"/>
<path d="M2.75672 10.9961C2.76695 10.9071 2.76695 10.8171 2.75672 10.7281C2.73297 10.6394 2.69835 10.554 2.65364 10.4738C2.61824 10.3895 2.57447 10.3089 2.52306 10.2333C2.47542 10.1571 2.4176 10.0877 2.35124 10.0271C1.81514 9.49417 0.949277 9.49417 0.413173 10.0271C0.155021 10.2837 0.00919381 10.6322 0.00769043 10.9961C0.0103536 11.1773 0.0452749 11.3564 0.110779 11.5253C0.145228 11.6066 0.186635 11.6848 0.234486 11.759C0.28676 11.8337 0.346638 11.9028 0.413173 11.9651C0.473909 12.0314 0.543236 12.0892 0.61935 12.137C0.691727 12.1897 0.770161 12.2336 0.853018 12.2675C0.936821 12.3028 1.02449 12.3282 1.11418 12.3431C1.2021 12.3629 1.29209 12.3721 1.38221 12.3706C1.47125 12.3809 1.56119 12.3809 1.65024 12.3706C1.73769 12.3556 1.82308 12.3303 1.90452 12.295C1.98961 12.2613 2.07037 12.2174 2.14506 12.1645C2.22118 12.1167 2.2905 12.0589 2.35124 11.9926C2.41748 11.9319 2.47529 11.8626 2.52306 11.7865C2.57589 11.7141 2.61974 11.6357 2.65364 11.5528C2.70058 11.4616 2.73525 11.3645 2.75672 11.2642C2.76729 11.1751 2.76729 11.0852 2.75672 10.9961Z" fill="black"/>
<path d="M2.75681 17.1815C2.76699 17.0924 2.76699 17.0025 2.75681 16.9134C2.73305 16.8225 2.69843 16.7349 2.65372 16.6523C2.61682 16.5709 2.57314 16.4927 2.52314 16.4186C2.47538 16.3425 2.41756 16.2732 2.35133 16.2124C1.81522 15.6795 0.949362 15.6795 0.413257 16.2124C0.347023 16.2732 0.289207 16.3425 0.241443 16.4186C0.191444 16.4927 0.147761 16.5709 0.110863 16.6523C0.0752119 16.7359 0.0498263 16.8237 0.035265 16.9134C0.0158929 17.0014 0.00670085 17.0913 0.00777469 17.1815C0.00932102 17.5454 0.155149 17.8939 0.413257 18.1505C0.473994 18.2167 0.543321 18.2745 0.619435 18.3223C0.691811 18.3751 0.770245 18.4189 0.853102 18.4529C0.936905 18.4882 1.02457 18.5135 1.11426 18.5285C1.20219 18.5482 1.29217 18.5574 1.38229 18.556C1.47133 18.5662 1.56128 18.5662 1.65032 18.556C1.73778 18.541 1.82317 18.5156 1.90461 18.4804C1.9897 18.4466 2.07045 18.4028 2.14515 18.3498C2.22126 18.302 2.29059 18.2442 2.35133 18.178C2.41756 18.1172 2.47538 18.0479 2.52314 17.9718C2.57602 17.8995 2.61987 17.821 2.65372 17.7381C2.70062 17.6469 2.73529 17.5498 2.75681 17.4495C2.76737 17.3604 2.76737 17.2705 2.75681 17.1815Z" fill="black"/>
<path d="M20.6254 9.62162H5.50574C4.74662 9.62162 4.13123 10.237 4.13123 10.9961C4.13123 11.7553 4.74662 12.3707 5.50574 12.3707H20.6254C21.3845 12.3707 21.9999 11.7553 21.9999 10.9961C21.9999 10.237 21.3845 9.62162 20.6254 9.62162Z" fill="black"/>
<path d="M14.4401 15.8069H5.50574C4.74662 15.8069 4.13123 16.4223 4.13123 17.1815C4.13123 17.9406 4.74662 18.556 5.50574 18.556H14.4401C15.1992 18.556 15.8146 17.9406 15.8146 17.1815C15.8146 16.4223 15.1992 15.8069 14.4401 15.8069Z" fill="black"/>
</svg>
