<svg width="16" height="16" viewBox="0 0 16 16" fill="none" xmlns="http://www.w3.org/2000/svg">
<path d="M15.5681 6.95923C15.5677 6.95886 15.5674 6.9585 15.567 6.95813L9.04027 0.431641C8.76207 0.15332 8.39219 0 7.99876 0C7.60533 0 7.23546 0.153198 6.95714 0.431519L0.433824 6.95471C0.431626 6.95691 0.429429 6.95923 0.427232 6.96143C-0.144057 7.53601 -0.14308 8.46826 0.430039 9.04138C0.69188 9.30334 1.03771 9.45508 1.40746 9.47095C1.42247 9.47241 1.43761 9.47314 1.45287 9.47314H1.713V14.2762C1.713 15.2267 2.48631 16 3.437 16H5.99046C6.24925 16 6.45921 15.7902 6.45921 15.5312V11.7656C6.45921 11.3319 6.812 10.9791 7.24571 10.9791H8.75181C9.18553 10.9791 9.53831 11.3319 9.53831 11.7656V15.5312C9.53831 15.7902 9.74815 16 10.0071 16H12.5605C13.5112 16 14.2845 15.2267 14.2845 14.2762V9.47314H14.5257C14.919 9.47314 15.2889 9.31995 15.5674 9.04163C16.1411 8.46753 16.1413 7.53369 15.5681 6.95923Z" fill="white"/>
</svg>
