<svg width="14" height="16" viewBox="0 0 14 16" fill="none" xmlns="http://www.w3.org/2000/svg">
<path d="M6.37838 0.255756L0.600082 6.03391C0.43514 6.19886 0.344605 6.41869 0.344605 6.6531C0.344605 6.88776 0.43527 7.10746 0.600082 7.27241L1.12483 7.79702C1.28951 7.96183 1.50947 8.05263 1.74401 8.05263C1.97841 8.05263 2.20579 7.96183 2.37047 7.79702L5.74879 4.42612L5.74879 15.1356C5.74879 15.6185 6.1268 16 6.60979 16L7.35164 16C7.83462 16 8.25075 15.6185 8.25075 15.1356L8.25075 4.38788L11.6479 7.79689C11.8129 7.9617 12.0268 8.0525 12.2614 8.0525C12.4957 8.0525 12.7128 7.9617 12.8776 7.79689L13.4006 7.27228C13.5656 7.10734 13.6555 6.88763 13.6555 6.65296C13.6555 6.41856 13.5644 6.19873 13.3995 6.03378L7.62129 0.255626C7.45583 0.090294 7.23495 -0.00063125 7.00016 1.91529e-05C6.76458 -0.000501556 6.54358 0.090294 6.37838 0.255756Z" fill="#C90030"/>
</svg>
